<svg id="svg" version="1.1" xmlns="http://www.w3.org/2000/svg" xmlns:xlink="http://www.w3.org/1999/xlink" width="400" height="399.2963940193492" viewBox="0, 0, 400,399.2963940193492"><g id="svgg"><path id="path0" d="M230.783 94.652 C 229.719 94.808,226.222 95.086,223.012 95.270 C 216.067 95.669,216.077 95.664,214.384 99.044 C 213.652 100.505,212.847 101.872,212.595 102.081 C 211.269 103.181,212.277 104.485,214.453 104.485 C 215.425 104.485,216.313 105.161,215.391 105.200 C 214.560 105.236,213.878 106.226,214.094 107.087 L 214.324 108.004 219.299 107.988 C 222.036 107.980,224.987 107.823,225.858 107.640 C 226.728 107.458,229.644 107.148,232.338 106.952 C 237.126 106.605,238.891 106.070,238.317 105.142 C 238.214 104.974,235.477 104.837,232.236 104.837 C 222.500 104.837,223.399 102.825,233.637 101.702 C 237.957 101.228,238.056 100.805,233.970 100.284 C 229.778 99.750,229.651 99.640,231.585 98.231 C 232.402 97.637,233.430 96.505,233.872 95.717 L 234.674 94.283 233.696 94.326 C 233.158 94.350,231.847 94.496,230.783 94.652 M264.437 112.313 C 264.610 113.864,265.550 118.432,266.703 123.318 C 267.070 124.873,267.368 126.535,267.365 127.012 C 267.358 127.969,268.467 133.184,269.494 137.027 C 269.856 138.382,270.386 140.598,270.673 141.953 C 270.960 143.307,271.524 145.919,271.926 147.757 C 272.329 149.595,272.656 151.473,272.653 151.929 C 272.650 152.386,272.952 154.048,273.325 155.623 C 273.698 157.198,274.339 160.070,274.751 162.005 C 275.163 163.940,275.799 166.869,276.166 168.514 C 276.533 170.158,277.164 173.325,277.568 175.550 C 278.291 179.522,278.574 180.984,279.990 188.039 C 280.379 189.974,280.878 192.823,281.101 194.371 C 281.586 197.749,281.979 199.599,282.855 202.639 C 283.217 203.896,283.593 205.400,283.691 205.981 C 283.788 206.561,284.285 208.936,284.796 211.258 C 286.172 217.519,286.623 220.176,287.052 224.549 C 287.265 226.720,287.738 229.683,288.104 231.135 C 288.469 232.586,289.091 235.356,289.484 237.291 C 290.762 243.576,290.985 244.648,291.462 246.790 C 291.721 247.951,292.355 250.009,292.871 251.363 C 293.977 254.267,295.065 258.395,295.374 260.862 C 295.495 261.829,295.910 263.333,296.296 264.204 C 296.682 265.075,297.279 266.420,297.622 267.194 C 297.965 267.968,298.581 269.358,298.991 270.282 C 299.401 271.206,299.736 272.190,299.736 272.469 C 299.736 272.747,299.953 273.495,300.217 274.131 C 300.482 274.766,301.055 276.473,301.491 277.924 C 302.587 281.571,303.589 284.778,304.360 287.107 C 304.719 288.191,305.013 289.397,305.013 289.787 C 305.013 290.524,306.140 293.644,306.952 295.153 C 307.797 296.724,309.234 296.766,309.237 295.220 C 309.240 293.443,308.581 288.701,308.006 286.368 C 307.743 285.303,307.183 282.850,306.760 280.915 C 306.336 278.980,305.768 276.403,305.495 275.188 C 305.223 273.973,304.917 271.994,304.815 270.790 C 304.568 267.879,303.373 261.110,302.564 258.047 C 301.886 255.477,300.868 251.499,299.933 247.763 C 299.631 246.556,299.384 245.222,299.384 244.797 C 299.384 244.373,299.079 242.985,298.705 241.714 C 298.332 240.442,297.679 238.135,297.254 236.588 C 296.830 235.040,296.185 232.790,295.822 231.589 C 295.460 230.387,295.165 229.200,295.168 228.950 C 295.171 228.700,294.854 227.427,294.464 226.121 C 294.074 224.815,293.415 222.599,292.999 221.196 C 292.583 219.793,292.122 218.487,291.976 218.294 C 291.136 217.184,290.086 212.913,289.211 207.036 C 288.492 202.216,287.901 199.518,287.093 197.361 C 285.792 193.892,285.388 192.572,284.885 190.150 C 284.685 189.182,284.224 187.449,283.861 186.299 C 283.498 185.149,283.201 183.894,283.201 183.510 C 283.201 183.126,282.896 181.771,282.523 180.500 C 281.560 177.215,280.542 173.117,279.676 169.041 C 278.850 165.155,278.002 161.946,277.578 161.108 C 277.427 160.808,277.118 159.621,276.893 158.470 C 275.794 152.852,274.981 149.134,274.397 147.054 C 273.222 142.874,272.295 138.650,272.298 137.480 C 272.300 135.766,270.885 129.119,269.155 122.722 C 268.754 121.239,268.424 119.497,268.422 118.852 C 268.410 115.738,266.368 110.818,265.086 110.818 C 264.336 110.818,264.284 110.937,264.437 112.313 M232.190 112.929 C 229.771 113.089,225.032 113.394,221.658 113.607 C 217.155 113.891,215.370 114.133,214.946 114.517 C 214.628 114.804,214.208 115.040,214.011 115.040 C 213.413 115.040,212.489 116.280,212.489 117.083 C 212.489 118.204,214.320 127.723,215.648 133.509 C 216.260 136.176,217.099 140.077,218.333 145.998 C 218.636 147.449,219.186 149.843,219.556 151.318 C 219.926 152.792,220.228 154.375,220.226 154.836 C 220.224 155.613,220.519 157.112,222.331 165.523 C 223.349 170.246,224.345 174.950,225.163 178.892 C 226.778 186.675,227.025 187.778,227.660 190.028 C 228.023 191.316,228.320 192.715,228.320 193.137 C 228.320 193.559,228.621 195.038,228.990 196.424 C 229.358 197.810,230.014 200.528,230.448 202.463 C 230.882 204.398,231.514 206.772,231.851 207.740 C 232.963 210.928,233.559 213.339,233.765 215.479 C 234.040 218.335,234.951 223.494,235.597 225.858 C 235.888 226.922,236.198 228.188,236.286 228.672 C 236.375 229.156,236.745 230.580,237.108 231.838 C 237.472 233.096,237.951 234.837,238.173 235.708 C 238.395 236.579,238.798 238.162,239.068 239.226 C 239.339 240.290,239.962 242.586,240.453 244.327 C 240.944 246.069,241.493 248.323,241.674 249.337 C 241.855 250.351,242.238 252.014,242.526 253.031 C 242.814 254.049,243.394 256.464,243.815 258.399 C 244.636 262.177,245.467 265.723,246.455 269.657 C 246.795 271.011,247.190 272.832,247.333 273.703 C 247.706 275.969,248.569 279.715,249.172 281.685 C 249.456 282.616,250.047 284.644,250.485 286.192 C 250.923 287.740,251.576 289.917,251.938 291.030 C 252.299 292.144,252.597 293.331,252.599 293.669 C 252.613 295.465,254.350 299.622,255.601 300.850 C 256.921 302.148,257.081 303.254,255.948 303.254 C 255.102 303.254,255.315 303.714,256.555 304.564 C 257.182 304.994,258.143 305.763,258.690 306.274 L 259.684 307.202 264.495 307.025 C 271.578 306.765,275.336 305.343,274.912 303.083 C 274.684 301.868,275.395 301.489,277.880 301.499 C 282.783 301.518,286.642 297.720,285.278 294.218 C 284.667 292.649,283.929 289.916,283.396 287.247 C 283.126 285.893,282.330 283.043,281.627 280.915 C 280.925 278.786,280.044 276.016,279.670 274.758 C 278.813 271.873,276.611 264.934,275.819 262.621 C 274.017 257.360,273.542 256.204,272.891 255.484 C 272.564 255.122,272.296 254.629,272.296 254.389 C 272.296 254.148,272.058 253.714,271.768 253.424 C 271.087 252.743,271.090 251.672,271.774 251.410 C 272.198 251.247,272.093 251.000,271.262 250.206 C 269.467 248.490,268.939 245.727,270.012 243.669 C 270.406 242.913,270.458 242.337,270.217 241.382 C 270.040 240.680,269.572 238.839,269.178 237.291 C 268.316 233.905,267.471 229.042,267.161 225.682 C 266.923 223.103,265.708 217.652,264.770 214.952 C 263.322 210.786,262.797 208.868,262.797 207.745 C 262.797 207.073,262.551 205.213,262.251 203.613 C 261.740 200.888,261.378 199.549,259.624 193.873 C 259.241 192.632,258.927 191.174,258.927 190.633 C 258.927 189.427,257.721 183.292,256.826 179.947 C 256.048 177.041,255.057 171.514,255.057 170.083 C 255.057 169.025,254.071 164.456,252.922 160.189 C 252.548 158.803,252.243 157.335,252.243 156.927 C 252.243 156.519,251.936 155.041,251.562 153.643 C 250.920 151.244,250.603 149.853,248.738 141.249 C 248.318 139.314,247.748 136.755,247.470 135.562 C 247.193 134.370,246.966 132.950,246.966 132.407 C 246.966 131.865,246.641 130.070,246.244 128.419 C 244.591 121.541,244.142 119.635,243.477 116.657 C 243.092 114.934,242.629 113.376,242.448 113.196 C 241.970 112.718,237.240 112.594,232.190 112.929 " stroke="none" fill="#b84d32" fill-rule="evenodd"></path><path id="path1" d="M142.128 101.698 C 140.484 101.850,135.655 102.144,131.398 102.351 C 119.071 102.949,108.763 104.189,101.671 105.927 C 97.647 106.914,97.522 106.978,97.300 108.163 C 97.143 109.001,96.734 109.486,95.686 110.074 C 94.915 110.508,94.283 111.000,94.283 111.166 C 94.283 111.333,94.006 111.533,93.668 111.609 C 91.485 112.103,96.755 112.573,104.498 112.575 L 113.129 112.577 115.052 114.541 L 116.974 116.505 119.789 116.291 C 121.337 116.172,124.820 115.848,127.529 115.570 C 134.253 114.878,139.913 114.368,143.816 114.101 C 146.094 113.944,146.975 113.765,146.718 113.508 C 146.054 112.844,146.331 111.935,147.438 111.147 C 149.048 110.000,148.300 109.779,142.656 109.733 C 139.947 109.711,137.355 109.587,136.896 109.458 L 136.061 109.224 137.072 108.752 C 138.411 108.127,140.484 107.192,142.720 106.203 C 144.727 105.316,144.802 105.006,143.092 104.662 C 140.065 104.053,139.950 103.640,142.650 103.080 C 143.711 102.859,144.677 102.520,144.797 102.326 C 144.917 102.132,145.355 101.836,145.770 101.669 C 146.704 101.292,146.484 101.294,142.128 101.698 M127.001 120.895 C 123.506 121.124,113.208 122.140,109.235 122.648 C 106.913 122.945,103.351 123.319,101.319 123.477 C 94.505 124.010,93.763 124.705,94.951 129.440 C 96.063 133.869,96.751 137.275,96.947 139.314 C 97.114 141.054,97.515 142.959,99.019 149.164 C 99.277 150.229,99.837 152.999,100.263 155.321 C 100.689 157.643,101.322 160.572,101.670 161.829 C 102.017 163.087,102.647 166.095,103.070 168.514 C 103.492 170.932,104.142 173.951,104.513 175.223 C 104.885 176.494,105.189 177.829,105.189 178.188 C 105.189 178.548,105.496 179.882,105.872 181.154 C 106.247 182.425,106.822 184.732,107.148 186.280 C 107.475 187.828,108.029 190.202,108.379 191.557 C 109.279 195.040,110.466 201.087,110.466 202.186 C 110.466 203.121,111.839 207.500,112.775 209.552 C 113.053 210.162,113.280 210.874,113.279 211.135 C 113.277 211.612,113.898 213.620,115.058 216.887 C 116.471 220.865,116.905 223.313,116.708 226.190 C 116.422 230.355,117.161 232.552,121.942 241.743 C 122.209 242.257,122.427 242.977,122.427 243.344 C 122.427 243.710,122.567 244.161,122.737 244.345 C 123.054 244.687,124.841 249.889,125.510 252.419 C 126.305 255.425,127.742 258.854,128.710 260.056 C 129.123 260.569,129.107 261.014,128.599 263.089 C 128.052 265.320,128.047 265.750,128.543 268.293 C 129.653 273.992,130.502 280.377,130.852 285.664 C 131.356 293.263,132.866 300.866,135.150 307.300 C 135.356 307.880,135.776 309.068,136.082 309.938 C 137.003 312.558,139.456 314.645,142.548 315.436 C 145.814 316.273,171.331 316.434,175.022 315.642 C 176.183 315.392,178.004 314.997,179.068 314.762 L 181.003 314.336 181.005 312.374 C 181.006 310.979,181.184 310.234,181.620 309.798 C 182.357 309.062,182.350 309.180,181.744 307.752 C 180.915 305.797,180.217 302.926,179.410 298.153 C 178.985 295.638,178.396 292.946,178.100 292.172 C 177.805 291.398,177.436 290.211,177.281 289.534 C 177.126 288.857,176.764 287.432,176.477 286.368 C 175.384 282.320,174.733 278.677,174.467 275.110 C 174.316 273.078,174.034 270.862,173.841 270.185 C 173.649 269.507,173.151 266.895,172.736 264.380 C 171.971 259.741,171.141 256.239,169.902 252.419 C 169.525 251.258,169.217 250.027,169.217 249.685 C 169.217 248.953,167.981 244.385,167.101 241.865 C 166.419 239.911,165.336 235.182,165.343 234.190 C 165.347 233.580,164.626 231.642,163.190 228.402 C 162.644 227.171,162.529 226.096,162.552 222.422 C 162.581 217.987,162.568 217.914,161.294 215.128 C 159.680 211.595,158.163 206.543,157.228 201.583 C 156.634 198.430,155.519 193.568,154.289 188.773 C 153.599 186.081,153.034 183.339,153.034 182.679 C 153.034 181.091,151.572 174.824,149.852 169.041 C 149.507 167.880,148.885 164.872,148.469 162.357 C 147.678 157.565,146.748 153.182,145.616 148.908 C 145.246 147.509,144.943 146.084,144.943 145.742 C 144.943 145.399,144.646 144.327,144.285 143.360 C 143.923 142.392,143.362 139.384,143.039 136.675 C 142.716 133.967,142.155 130.880,141.792 129.815 C 141.429 128.751,140.851 126.258,140.508 124.274 L 139.885 120.668 134.235 120.730 C 131.127 120.764,127.872 120.838,127.001 120.895 " stroke="none" fill="#1005ac" fill-rule="evenodd"></path><path id="path2" d="M184.697 0.393 C 90.994 7.872,15.118 78.585,1.957 170.699 C 0.366 181.837,0.176 184.927,0.176 199.648 C 0.176 340.881,141.640 437.042,273.619 385.522 L 277.229 384.112 276.433 383.005 C 275.468 381.660,274.946 380.807,274.240 379.420 C 273.945 378.839,273.309 377.731,272.828 376.957 C 270.119 372.604,269.098 368.364,269.827 364.501 C 270.301 361.987,270.198 360.526,269.340 357.574 C 269.065 356.625,268.681 355.295,268.488 354.617 C 267.758 352.054,266.616 349.200,265.137 346.246 C 263.809 343.594,259.573 339.847,259.189 340.985 C 259.020 341.488,257.872 340.732,257.872 340.118 C 257.872 339.931,257.238 338.875,256.464 337.772 C 254.569 335.069,254.562 335.085,258.381 333.531 C 259.473 333.087,259.129 332.471,257.784 332.459 C 256.391 332.447,257.295 331.781,258.839 331.682 L 260.510 331.574 260.614 329.213 C 260.783 325.368,259.116 323.333,255.761 323.289 C 253.060 323.253,250.800 319.375,250.132 313.632 C 249.907 311.697,249.569 309.956,249.382 309.763 C 248.707 309.067,237.985 309.401,234.219 310.235 C 232.336 310.653,230.040 311.000,229.118 311.007 C 228.195 311.014,226.332 311.263,224.978 311.561 C 223.624 311.858,219.745 312.212,216.359 312.348 C 211.312 312.550,210.033 312.708,209.263 313.223 C 208.496 313.737,207.692 313.838,204.866 313.773 C 199.345 313.648,183.025 314.495,179.947 315.067 C 178.399 315.355,176.104 315.824,174.846 316.110 C 171.107 316.958,146.758 316.844,143.162 315.961 C 139.207 314.990,135.796 312.324,135.796 310.204 C 135.796 309.955,135.479 309.161,135.092 308.439 C 134.705 307.717,134.389 306.882,134.389 306.583 C 134.389 306.284,134.088 305.057,133.721 303.855 C 131.610 296.942,130.707 291.661,130.161 283.026 C 129.965 279.930,129.576 276.368,129.295 275.110 C 129.014 273.852,128.781 272.348,128.777 271.768 C 128.772 271.187,128.497 269.549,128.164 268.127 C 127.593 265.684,127.593 265.415,128.163 263.241 C 128.626 261.474,128.671 260.827,128.356 260.447 C 127.719 259.680,126.518 256.886,125.661 254.178 C 122.883 245.397,121.972 242.854,120.465 239.676 C 119.803 238.278,119.261 237.067,119.261 236.983 C 119.261 236.899,118.728 235.888,118.077 234.736 C 116.465 231.885,115.960 229.580,116.256 226.427 C 116.499 223.833,115.736 219.462,114.541 216.606 C 114.282 215.986,113.792 214.529,113.453 213.369 C 113.114 212.208,112.560 210.466,112.221 209.499 C 110.472 204.502,110.497 204.599,109.428 198.769 C 109.020 196.544,108.388 193.536,108.023 192.084 C 107.659 190.633,107.092 188.100,106.764 186.456 C 106.436 184.811,105.868 182.524,105.502 181.374 C 105.137 180.224,104.837 179.000,104.837 178.655 C 104.837 178.310,104.535 177.034,104.166 175.821 C 103.796 174.608,103.155 171.557,102.740 169.041 C 102.326 166.526,101.692 163.439,101.333 162.181 C 100.483 159.211,99.534 154.810,99.211 152.348 C 98.948 150.343,98.577 148.705,97.412 144.415 C 97.044 143.061,96.744 141.509,96.745 140.967 C 96.746 139.609,95.460 132.994,94.597 129.923 C 93.233 125.067,94.745 123.201,100.088 123.151 C 101.055 123.142,104.301 122.831,107.300 122.460 C 112.448 121.824,118.985 121.176,129.182 120.290 C 131.639 120.076,134.806 120.009,136.218 120.140 C 137.859 120.293,140.311 120.184,143.008 119.839 C 145.330 119.542,149.288 119.203,151.803 119.086 C 154.318 118.969,158.354 118.644,160.772 118.364 C 163.189 118.083,166.197 117.856,167.456 117.858 C 169.726 117.863,179.661 117.093,194.899 115.732 C 199.252 115.343,203.701 115.028,204.786 115.032 C 209.285 115.049,210.908 114.692,211.401 113.579 C 212.787 110.448,206.059 108.658,196.834 109.702 C 186.471 110.874,180.999 111.404,167.106 112.582 C 164.881 112.771,161.557 113.076,159.719 113.260 C 157.880 113.444,153.923 113.771,150.923 113.985 C 147.924 114.200,143.887 114.524,141.953 114.704 C 140.018 114.884,136.297 115.189,133.685 115.381 C 131.073 115.574,127.907 115.886,126.649 116.075 C 125.391 116.264,122.666 116.527,120.592 116.658 L 116.821 116.897 114.830 114.907 L 112.840 112.917 104.177 112.965 C 98.027 113.000,95.081 112.884,94.019 112.564 C 92.411 112.080,92.097 111.567,93.228 111.272 C 93.615 111.170,93.931 110.977,93.931 110.842 C 93.931 110.706,94.559 110.243,95.326 109.812 C 96.389 109.215,96.772 108.749,96.941 107.849 C 97.183 106.559,96.678 106.778,103.078 105.183 C 105.661 104.539,112.605 103.477,119.261 102.708 C 121.099 102.495,126.165 102.176,130.519 101.999 C 134.872 101.822,140.651 101.438,143.360 101.145 C 150.746 100.349,157.412 99.859,167.106 99.401 C 169.912 99.268,173.078 99.004,174.142 98.814 C 175.207 98.624,180.273 98.330,185.400 98.161 C 200.554 97.660,207.581 96.660,208.971 94.808 C 209.844 93.644,211.078 93.117,216.007 91.798 C 219.546 90.852,236.173 90.851,245.734 91.798 C 250.486 92.268,260.344 91.994,266.404 91.224 C 272.157 90.492,274.311 91.254,271.754 93.116 C 270.042 94.363,270.183 100.237,271.972 102.206 C 272.608 102.906,272.590 102.933,270.786 103.941 C 267.495 105.782,267.242 107.400,269.461 112.401 C 270.593 114.951,271.009 116.574,271.578 120.661 C 272.122 124.566,272.169 124.700,273.010 124.707 C 273.821 124.714,273.893 124.865,274.095 127.001 C 274.213 128.259,274.569 130.366,274.886 131.684 C 275.203 133.002,275.462 134.698,275.462 135.453 C 275.462 137.014,276.577 142.837,277.593 146.584 C 277.969 147.970,278.278 149.553,278.281 150.102 C 278.285 151.142,279.232 154.435,280.135 156.552 C 280.631 157.715,281.077 158.807,282.818 163.126 C 283.414 164.604,283.553 165.709,283.553 168.950 C 283.553 171.988,283.725 173.496,284.266 175.218 C 284.659 176.464,285.232 178.355,285.540 179.420 C 285.848 180.484,286.377 182.146,286.716 183.113 C 287.055 184.081,287.765 186.693,288.293 188.918 C 289.311 193.208,289.584 193.964,291.557 197.945 C 292.706 200.264,292.786 200.627,292.564 202.519 C 291.906 208.135,291.902 208.578,292.501 210.446 C 293.179 212.559,294.171 214.744,295.506 217.062 C 297.418 220.385,298.473 223.708,297.839 224.409 C 297.173 225.145,297.417 225.506,298.581 225.506 C 299.958 225.506,301.146 229.468,301.851 236.412 C 302.038 238.250,302.530 240.783,302.946 242.040 C 303.524 243.793,303.722 245.355,303.791 248.725 C 303.898 253.923,304.480 256.733,306.206 260.382 C 307.335 262.769,307.476 263.380,307.476 265.880 C 307.476 267.426,307.689 269.225,307.950 269.878 C 308.211 270.530,308.775 273.201,309.203 275.814 C 309.631 278.426,310.289 281.513,310.664 282.674 C 311.065 283.912,311.485 286.675,311.681 289.358 C 311.864 291.873,312.181 294.484,312.384 295.160 C 313.781 299.813,310.634 302.680,305.444 301.483 C 303.832 301.111,304.086 301.028,299.208 303.520 C 296.608 304.849,293.502 306.071,292.741 306.063 C 292.428 306.060,290.668 306.386,288.830 306.788 C 286.992 307.189,284.301 307.772,282.850 308.081 C 278.252 309.063,277.576 309.721,277.567 313.221 C 277.560 316.194,277.268 316.592,275.658 315.824 C 274.450 315.248,274.406 315.251,274.406 315.904 C 274.406 316.953,274.971 317.110,279.609 317.357 C 284.390 317.612,284.204 317.557,284.337 318.755 C 284.429 319.578,284.340 319.617,282.146 319.706 C 279.846 319.800,278.790 320.137,277.284 321.257 C 276.651 321.728,276.264 321.786,275.556 321.517 C 275.054 321.326,274.520 321.295,274.368 321.447 C 274.085 321.731,270.185 329.300,270.185 329.564 C 270.185 329.645,271.277 329.601,272.612 329.467 C 275.080 329.219,278.149 329.638,280.211 330.504 C 280.792 330.748,281.726 331.136,282.288 331.366 C 284.247 332.168,287.131 334.326,287.459 335.234 C 287.641 335.736,287.940 336.464,288.124 336.851 C 288.613 337.878,289.503 340.418,290.220 342.832 C 290.564 343.993,291.026 345.388,291.246 345.933 C 291.465 346.478,291.645 347.403,291.645 347.989 C 291.645 349.753,293.033 356.098,293.767 357.686 C 294.623 359.538,295.726 360.276,298.225 360.668 C 300.989 361.101,305.336 363.279,305.756 364.440 C 307.342 368.836,308.159 368.542,320.771 359.040 C 365.635 325.243,393.423 275.419,399.368 218.118 C 399.985 212.168,399.985 187.128,399.368 181.179 C 389.478 85.850,317.098 11.922,223.143 1.184 C 217.401 0.527,217.183 0.555,214.954 2.220 C 214.085 2.868,214.074 2.867,213.846 2.053 C 213.691 1.504,213.603 1.847,213.579 3.082 L 213.544 4.934 212.049 4.731 C 211.227 4.620,210.189 4.455,209.743 4.364 C 208.802 4.172,204.690 5.128,203.206 5.883 C 202.462 6.262,201.992 6.304,201.447 6.041 C 201.038 5.844,199.629 5.586,198.315 5.469 C 197.002 5.351,195.181 4.926,194.270 4.525 C 193.358 4.123,191.979 3.512,191.205 3.165 C 190.431 2.819,189.527 2.448,189.197 2.340 C 188.759 2.197,188.633 1.852,188.731 1.072 C 188.806 0.482,188.760 0.022,188.629 0.049 C 188.498 0.076,186.728 0.231,184.697 0.393 " stroke="none" fill="#0c0c0f" fill-rule="evenodd"></path><path id="path3" d="M147.581 102.258 C 145.304 102.399,140.721 103.429,140.721 103.799 C 140.721 104.102,141.231 104.288,143.092 104.662 C 144.802 105.006,144.727 105.316,142.720 106.203 C 140.484 107.192,138.411 108.127,137.072 108.752 L 136.061 109.224 136.896 109.458 C 138.953 110.035,147.543 109.774,150.044 109.059 C 151.397 108.672,153.072 108.355,153.766 108.355 C 155.273 108.355,159.075 107.655,159.471 107.304 C 159.625 107.168,157.129 106.859,153.924 106.618 C 145.637 105.996,145.711 106.032,148.967 104.169 C 152.884 101.928,152.885 101.931,147.581 102.258 M150.572 119.293 C 147.766 119.442,144.442 119.730,143.184 119.933 C 141.926 120.136,140.699 120.306,140.457 120.310 C 139.710 120.322,140.512 126.011,141.798 129.815 C 142.157 130.880,142.716 133.967,143.039 136.675 C 143.362 139.384,143.923 142.392,144.285 143.360 C 144.646 144.327,144.943 145.399,144.943 145.742 C 144.943 146.084,145.246 147.509,145.616 148.908 C 146.748 153.182,147.678 157.565,148.469 162.357 C 148.885 164.872,149.507 167.880,149.852 169.041 C 151.572 174.824,153.034 181.091,153.034 182.679 C 153.034 183.339,153.599 186.081,154.289 188.773 C 155.519 193.568,156.634 198.430,157.228 201.583 C 158.163 206.543,159.680 211.595,161.294 215.128 C 162.568 217.914,162.581 217.987,162.552 222.422 C 162.529 226.096,162.644 227.171,163.190 228.402 C 164.626 231.642,165.347 233.580,165.343 234.190 C 165.336 235.182,166.419 239.911,167.101 241.865 C 167.981 244.385,169.217 248.953,169.217 249.685 C 169.217 250.027,169.525 251.258,169.902 252.419 C 171.141 256.239,171.971 259.741,172.736 264.380 C 173.151 266.895,173.649 269.507,173.841 270.185 C 174.034 270.862,174.316 273.078,174.467 275.110 C 174.733 278.677,175.384 282.320,176.477 286.368 C 176.764 287.432,177.126 288.857,177.281 289.534 C 177.436 290.211,177.805 291.398,178.100 292.172 C 178.396 292.946,178.985 295.638,179.410 298.153 C 180.217 302.926,180.915 305.797,181.744 307.752 C 182.350 309.180,182.357 309.061,181.618 309.801 C 181.087 310.333,180.779 314.064,181.248 314.292 C 181.306 314.320,183.673 314.263,186.508 314.164 C 192.274 313.963,192.734 313.779,193.737 311.273 C 194.280 309.917,196.034 309.112,199.472 308.643 C 203.705 308.066,204.607 306.443,203.544 301.319 C 203.263 299.965,202.688 297.115,202.266 294.987 C 201.196 289.582,200.070 286.064,197.543 280.228 C 196.980 278.927,192.124 273.703,191.479 273.703 C 191.317 273.703,190.914 273.386,190.583 272.999 C 190.252 272.612,189.589 272.296,189.111 272.296 C 188.119 272.296,186.807 271.061,186.807 270.128 C 186.807 269.782,186.511 268.823,186.148 267.995 C 185.133 265.677,182.586 256.650,182.586 255.371 C 182.586 254.645,181.695 250.884,180.629 247.111 C 180.351 246.127,180.023 243.435,179.900 241.130 L 179.677 236.939 180.779 236.530 C 181.385 236.306,181.983 235.831,182.109 235.475 C 182.235 235.119,182.644 234.135,183.019 233.288 C 185.604 227.442,186.040 223.722,184.303 222.336 C 180.946 219.655,181.179 220.015,181.179 217.511 C 181.179 216.245,181.365 214.197,181.593 212.960 C 182.027 210.602,181.701 207.721,180.643 204.573 C 180.383 203.799,179.830 201.187,179.415 198.769 C 179.000 196.350,178.366 193.263,178.005 191.909 C 177.645 190.554,177.012 187.704,176.599 185.576 C 176.187 183.448,175.606 180.764,175.309 179.612 C 175.013 178.461,174.690 176.244,174.592 174.687 C 174.424 172.024,173.915 169.643,172.632 165.523 C 172.330 164.556,171.740 162.181,171.321 160.246 C 170.901 158.311,170.274 155.541,169.926 154.090 C 169.579 152.639,168.955 149.314,168.541 146.702 C 168.127 144.090,167.534 140.607,167.223 138.962 C 166.913 137.318,166.543 135.339,166.401 134.565 C 165.888 131.765,164.858 127.849,163.185 122.340 C 162.418 119.816,162.279 119.603,161.302 119.456 C 158.880 119.092,155.374 119.039,150.572 119.293 M170.016 230.662 C 171.498 233.486,173.018 238.060,173.973 242.568 C 174.301 244.116,174.869 246.436,175.235 247.724 C 175.602 249.012,175.901 250.380,175.901 250.765 C 175.901 251.150,176.193 252.471,176.548 253.701 C 176.904 254.931,177.554 257.520,177.993 259.455 C 178.431 261.390,179.090 264.026,179.457 265.314 C 179.823 266.602,180.123 267.989,180.123 268.398 C 180.123 268.806,180.351 270.048,180.629 271.157 C 182.017 276.694,183.772 289.714,182.727 286.719 C 182.625 286.429,182.255 285.479,181.904 284.609 C 181.553 283.738,181.027 282.234,180.735 281.266 C 179.622 277.573,178.730 274.482,177.993 271.768 C 176.714 267.055,175.998 264.495,175.229 261.892 C 174.825 260.524,174.494 259.113,174.494 258.757 C 174.494 258.401,174.268 257.304,173.992 256.319 C 173.715 255.335,173.147 252.867,172.730 250.836 C 172.313 248.804,171.670 245.796,171.301 244.151 C 169.610 236.599,169.264 234.598,169.081 231.310 C 168.960 229.137,169.001 228.150,169.188 228.727 C 169.355 229.241,169.727 230.112,170.016 230.662 " stroke="none" fill="#1c8c8c" fill-rule="evenodd"></path><path id="path4" d="M206.822 96.196 C 206.282 96.741,194.172 97.852,185.576 98.145 C 180.352 98.324,175.207 98.625,174.142 98.815 C 173.078 99.004,169.912 99.268,167.106 99.401 C 152.822 100.076,148.158 100.500,147.101 101.218 C 146.591 101.564,145.937 101.968,145.646 102.115 C 145.356 102.262,146.678 102.291,148.584 102.179 C 152.620 101.942,152.644 102.065,148.967 104.169 C 145.711 106.032,145.637 105.996,153.924 106.618 C 157.129 106.859,159.625 107.168,159.471 107.304 C 159.076 107.654,155.276 108.355,153.767 108.357 C 152.103 108.359,147.782 109.584,148.465 109.860 C 148.862 110.020,148.664 110.358,147.646 111.256 C 146.306 112.438,146.304 112.443,146.962 113.254 L 147.620 114.068 154.573 113.670 C 158.397 113.452,162.188 113.132,162.997 112.960 C 163.806 112.788,166.130 112.549,168.162 112.429 C 174.021 112.082,184.837 111.052,196.482 109.733 C 203.411 108.948,208.295 109.476,210.451 111.243 L 211.972 112.488 213.140 110.158 C 214.133 108.176,214.252 107.684,213.937 106.867 C 213.622 106.049,213.670 105.850,214.259 105.535 C 215.362 104.945,215.066 104.485,213.582 104.485 C 211.388 104.485,211.384 103.647,213.560 100.143 C 214.142 99.206,214.850 97.883,215.134 97.203 L 215.651 95.967 214.686 96.225 C 214.155 96.366,213.562 96.456,213.369 96.425 C 211.967 96.195,206.994 96.021,206.822 96.196 M209.675 114.703 C 208.610 114.850,206.631 114.982,205.277 114.998 C 203.923 115.013,199.252 115.343,194.899 115.732 C 179.956 117.067,169.742 117.863,167.634 117.858 C 164.642 117.850,157.847 118.578,157.449 118.949 C 157.252 119.133,157.902 119.263,159.033 119.266 C 162.174 119.274,162.268 119.343,163.187 122.358 C 164.837 127.768,165.886 131.752,166.401 134.565 C 166.543 135.339,166.913 137.318,167.223 138.962 C 167.534 140.607,168.127 144.090,168.541 146.702 C 168.955 149.314,169.579 152.639,169.926 154.090 C 170.274 155.541,170.901 158.311,171.321 160.246 C 171.740 162.181,172.330 164.556,172.632 165.523 C 173.915 169.643,174.424 172.024,174.592 174.687 C 174.690 176.244,175.013 178.461,175.309 179.612 C 175.606 180.764,176.187 183.448,176.599 185.576 C 177.012 187.704,177.645 190.554,178.005 191.909 C 178.366 193.263,179.000 196.350,179.415 198.769 C 179.830 201.187,180.383 203.799,180.643 204.573 C 181.701 207.721,182.027 210.602,181.593 212.960 C 181.365 214.197,181.179 216.245,181.179 217.511 C 181.179 220.015,180.946 219.655,184.303 222.336 C 186.040 223.722,185.604 227.442,183.019 233.288 C 182.644 234.135,182.235 235.119,182.109 235.475 C 181.983 235.831,181.385 236.306,180.779 236.530 L 179.677 236.939 179.900 241.130 C 180.023 243.435,180.351 246.127,180.629 247.111 C 181.695 250.884,182.586 254.645,182.586 255.371 C 182.586 256.650,185.133 265.677,186.148 267.995 C 186.511 268.823,186.807 269.782,186.807 270.128 C 186.807 271.061,188.119 272.296,189.111 272.296 C 189.589 272.296,190.252 272.612,190.583 272.999 C 190.914 273.386,191.317 273.703,191.479 273.703 C 192.124 273.703,196.980 278.927,197.543 280.228 C 200.070 286.064,201.196 289.582,202.266 294.987 C 202.688 297.115,203.263 299.965,203.544 301.319 C 204.607 306.443,203.705 308.066,199.472 308.643 C 196.034 309.112,194.280 309.917,193.737 311.273 C 193.217 312.572,192.383 313.516,191.381 313.939 C 191.091 314.062,193.228 314.057,196.130 313.929 C 199.033 313.800,202.964 313.731,204.866 313.774 C 207.692 313.838,208.496 313.737,209.263 313.223 C 210.033 312.708,211.312 312.550,216.359 312.348 C 219.745 312.212,223.624 311.858,224.978 311.561 C 226.332 311.263,228.232 311.010,229.200 310.999 C 230.167 310.988,232.383 310.650,234.125 310.247 C 236.563 309.684,238.684 309.498,243.352 309.437 C 248.277 309.372,249.530 309.254,250.036 308.806 C 250.478 308.415,251.799 308.182,254.565 308.006 C 260.118 307.653,260.055 307.823,255.920 304.335 L 254.907 303.480 255.862 303.162 C 257.125 302.741,257.066 302.290,255.552 300.802 C 254.350 299.622,252.613 295.425,252.599 293.669 C 252.597 293.331,252.299 292.144,251.938 291.030 C 251.576 289.917,250.923 287.740,250.485 286.192 C 250.047 284.644,249.456 282.616,249.172 281.685 C 248.569 279.715,247.706 275.969,247.333 273.703 C 247.190 272.832,246.795 271.011,246.455 269.657 C 245.467 265.723,244.636 262.177,243.815 258.399 C 243.394 256.464,242.814 254.049,242.526 253.031 C 242.238 252.014,241.855 250.351,241.674 249.337 C 241.493 248.323,240.944 246.069,240.453 244.327 C 239.962 242.586,239.339 240.290,239.068 239.226 C 238.798 238.162,238.395 236.579,238.173 235.708 C 237.951 234.837,237.472 233.096,237.108 231.838 C 236.745 230.580,236.375 229.156,236.286 228.672 C 236.198 228.188,235.888 226.922,235.597 225.858 C 234.951 223.494,234.040 218.335,233.765 215.479 C 233.559 213.339,232.963 210.928,231.851 207.740 C 231.514 206.772,230.882 204.398,230.448 202.463 C 230.014 200.528,229.358 197.810,228.990 196.424 C 228.621 195.038,228.320 193.559,228.320 193.137 C 228.320 192.715,228.023 191.316,227.660 190.028 C 227.025 187.778,226.778 186.675,225.163 178.892 C 224.345 174.950,223.349 170.246,222.331 165.523 C 220.519 157.112,220.224 155.613,220.226 154.836 C 220.228 154.375,219.926 152.792,219.556 151.318 C 219.186 149.843,218.636 147.449,218.333 145.998 C 217.099 140.077,216.260 136.176,215.648 133.509 C 212.224 118.594,211.939 115.040,214.167 115.040 C 214.382 115.040,214.656 114.881,214.776 114.688 C 215.025 114.285,212.647 114.292,209.675 114.703 " stroke="none" fill="#24722c" fill-rule="evenodd"></path><path id="path5" d="M233.907 93.739 C 233.649 93.997,222.982 94.986,220.436 94.989 C 217.865 94.991,215.799 95.512,215.525 96.226 C 215.356 96.665,215.462 96.658,216.190 96.181 C 216.832 95.761,218.530 95.532,222.775 95.294 C 225.922 95.117,229.655 94.818,231.072 94.628 C 232.489 94.438,233.879 94.283,234.161 94.283 C 235.035 94.283,233.251 97.018,231.585 98.231 C 229.651 99.640,229.778 99.750,233.970 100.284 C 238.056 100.805,237.957 101.228,233.637 101.702 C 223.399 102.825,222.500 104.837,232.236 104.837 C 235.477 104.837,238.214 104.974,238.317 105.142 C 238.899 106.083,237.133 106.604,232.242 106.932 C 229.496 107.117,227.054 107.389,226.817 107.537 C 226.580 107.684,223.644 107.889,220.294 107.992 L 214.203 108.179 213.218 110.114 C 212.676 111.179,212.018 112.524,211.756 113.105 C 211.495 113.685,211.234 114.246,211.176 114.350 C 211.119 114.454,212.222 114.422,213.628 114.277 C 221.249 113.493,239.105 112.516,240.900 112.785 C 242.673 113.051,242.765 113.198,243.616 117.150 C 244.167 119.706,244.733 122.135,246.244 128.419 C 246.641 130.070,246.966 131.865,246.966 132.407 C 246.966 132.950,247.193 134.370,247.470 135.562 C 247.748 136.755,248.318 139.314,248.738 141.249 C 250.603 149.853,250.920 151.244,251.562 153.643 C 251.936 155.041,252.243 156.519,252.243 156.927 C 252.243 157.335,252.548 158.803,252.922 160.189 C 254.071 164.456,255.057 169.025,255.057 170.083 C 255.057 171.514,256.048 177.041,256.826 179.947 C 257.721 183.292,258.927 189.427,258.927 190.633 C 258.927 191.174,259.241 192.632,259.624 193.873 C 261.378 199.549,261.740 200.888,262.251 203.613 C 262.551 205.213,262.797 207.073,262.797 207.745 C 262.797 208.868,263.322 210.786,264.770 214.952 C 265.708 217.652,266.923 223.103,267.161 225.682 C 267.471 229.042,268.316 233.905,269.178 237.291 C 269.572 238.839,270.040 240.680,270.217 241.382 C 270.458 242.337,270.406 242.913,270.012 243.669 C 268.939 245.727,269.467 248.490,271.262 250.206 C 272.093 251.000,272.198 251.247,271.774 251.410 C 271.090 251.672,271.087 252.743,271.768 253.424 C 272.058 253.714,272.296 254.148,272.296 254.389 C 272.296 254.629,272.564 255.122,272.891 255.484 C 273.542 256.204,274.017 257.360,275.819 262.621 C 276.611 264.934,278.813 271.873,279.670 274.758 C 280.044 276.016,280.925 278.786,281.627 280.915 C 282.330 283.043,283.126 285.893,283.396 287.247 C 283.929 289.916,284.667 292.649,285.278 294.218 C 286.642 297.720,282.783 301.518,277.880 301.499 C 275.395 301.489,274.684 301.868,274.912 303.083 C 275.166 304.437,274.348 305.128,271.240 306.189 C 269.109 306.916,259.730 307.467,259.325 306.889 C 258.961 306.370,255.887 303.958,255.589 303.958 C 255.438 303.958,255.771 304.301,256.329 304.720 C 256.887 305.140,257.846 305.950,258.460 306.522 L 259.575 307.560 266.122 307.500 C 270.164 307.462,273.775 307.237,275.560 306.911 C 277.151 306.620,279.414 306.237,280.590 306.060 C 283.029 305.692,285.139 304.832,286.325 303.723 L 287.141 302.961 286.139 302.432 L 285.136 301.903 286.192 301.497 C 286.772 301.274,288.089 300.871,289.119 300.602 C 293.848 299.367,294.775 297.992,293.601 293.955 C 293.299 292.915,293.053 290.901,293.055 289.480 C 293.059 286.973,292.724 285.565,290.889 280.387 C 290.512 279.323,289.918 277.819,289.570 277.045 C 288.098 273.770,287.755 272.900,287.448 271.664 C 287.271 270.947,286.644 269.015,286.055 267.370 C 285.384 265.495,284.980 263.678,284.973 262.499 C 284.965 261.270,284.738 260.295,284.318 259.685 C 283.965 259.171,283.321 257.247,282.887 255.409 C 282.453 253.571,281.792 251.230,281.419 250.207 C 281.045 249.184,280.739 247.943,280.739 247.450 C 280.739 246.640,280.215 244.473,278.795 239.402 C 277.753 235.685,277.389 224.992,278.262 223.766 L 279.028 222.691 277.794 222.691 C 275.913 222.691,275.526 220.042,277.161 218.356 L 278.244 217.238 276.765 215.220 C 275.951 214.111,275.128 213.196,274.934 213.187 C 272.702 213.083,271.948 208.413,273.529 204.485 C 274.183 202.862,273.803 201.094,271.815 196.510 C 271.191 195.071,271.082 194.229,271.172 191.532 C 271.249 189.187,271.127 187.921,270.732 186.976 C 270.431 186.255,270.185 185.446,270.185 185.177 C 270.185 184.909,269.888 184.018,269.525 183.198 C 268.363 180.568,267.684 177.916,267.343 174.670 C 266.840 169.879,265.159 161.858,264.137 159.367 C 262.195 154.635,261.986 153.400,262.234 148.148 L 262.473 143.084 261.208 141.925 L 259.942 140.765 260.175 137.841 C 260.399 135.026,260.373 134.877,259.481 133.861 C 258.866 133.161,258.623 132.569,258.759 132.102 C 259.254 130.403,259.359 128.760,258.973 128.760 C 258.754 128.760,258.575 128.928,258.575 129.132 C 258.575 129.337,258.417 129.407,258.223 129.288 C 258.030 129.168,257.872 128.663,257.872 128.166 C 257.872 127.132,256.546 123.359,255.362 121.020 C 254.761 119.834,254.512 118.599,254.369 116.095 L 254.178 112.753 252.946 112.652 C 252.269 112.597,251.217 112.293,250.608 111.976 C 249.617 111.461,248.918 111.444,243.924 111.814 C 233.559 112.581,233.998 112.595,231.910 111.425 C 230.194 110.463,230.090 110.334,230.591 109.780 C 230.890 109.450,231.135 109.019,231.135 108.822 C 231.135 108.093,232.460 107.300,233.679 107.300 C 236.868 107.300,246.614 105.314,246.614 104.664 C 246.614 104.389,241.800 103.078,240.771 103.073 C 239.198 103.065,238.527 102.503,239.596 102.090 C 241.411 101.389,245.465 100.264,246.178 100.264 C 248.661 100.264,246.604 99.127,243.313 98.681 C 240.151 98.252,239.919 98.029,241.625 97.063 C 242.981 96.295,243.107 96.106,243.018 94.987 L 242.920 93.755 238.503 93.658 C 236.074 93.604,234.005 93.640,233.907 93.739 M214.248 105.456 L 213.369 106.352 214.512 105.695 C 215.141 105.333,215.655 104.913,215.655 104.761 C 215.655 104.283,215.158 104.529,214.248 105.456 M264.039 112.313 C 264.249 114.149,265.070 118.206,266.350 123.734 C 266.717 125.323,267.018 127.031,267.018 127.529 C 267.018 128.462,267.959 132.712,269.121 137.027 C 269.486 138.382,270.032 140.677,270.335 142.128 C 270.637 143.580,271.202 146.243,271.590 148.048 C 271.978 149.852,272.296 151.718,272.296 152.194 C 272.296 152.670,272.598 154.360,272.967 155.949 C 273.337 157.539,273.983 160.501,274.404 162.533 C 274.825 164.565,275.461 167.493,275.818 169.041 C 276.175 170.589,276.806 173.676,277.221 175.901 C 277.945 179.784,278.206 181.127,279.688 188.566 C 280.054 190.405,280.523 193.175,280.730 194.723 C 280.936 196.271,281.505 199.041,281.993 200.880 C 282.480 202.718,283.003 204.934,283.154 205.805 C 283.507 207.845,284.544 212.523,285.143 214.776 C 285.607 216.524,285.994 219.111,286.747 225.506 C 286.964 227.344,287.429 230.035,287.780 231.486 C 288.132 232.938,288.761 235.866,289.179 237.995 C 289.596 240.123,290.243 243.165,290.615 244.754 C 290.988 246.344,291.293 247.895,291.293 248.201 C 291.293 248.508,291.609 249.414,291.996 250.215 C 292.383 251.016,292.700 251.816,292.700 251.992 C 292.700 252.168,292.918 252.811,293.185 253.421 C 293.726 254.659,294.667 258.619,294.995 261.038 C 295.194 262.504,295.696 263.927,297.292 267.546 C 298.558 270.417,299.713 273.536,300.612 276.517 C 300.875 277.388,301.408 279.129,301.797 280.387 C 302.968 284.179,303.939 287.508,304.359 289.182 C 304.578 290.053,305.053 291.507,305.413 292.414 C 305.774 293.320,306.072 294.270,306.076 294.524 C 306.091 295.377,307.289 296.498,308.443 296.739 L 309.587 296.978 309.587 294.967 C 309.587 292.011,308.806 287.491,307.130 280.739 C 306.219 277.071,305.001 270.243,305.007 268.847 C 305.019 266.499,303.474 259.390,301.471 252.570 C 301.097 251.298,300.793 249.953,300.795 249.579 C 300.800 248.320,299.430 242.799,296.218 231.135 C 295.872 229.877,295.246 227.581,294.827 226.033 C 293.919 222.675,292.772 219.190,291.467 215.831 C 290.858 214.264,290.277 211.641,289.869 208.619 C 288.895 201.401,288.652 200.244,287.436 197.010 C 286.096 193.445,285.382 191.087,284.965 188.851 C 284.796 187.943,284.422 186.360,284.133 185.333 C 283.845 184.306,283.292 182.199,282.905 180.651 C 282.518 179.103,281.885 176.570,281.499 175.022 C 281.113 173.474,280.450 170.624,280.027 168.690 C 279.604 166.755,278.892 163.984,278.445 162.533 C 277.998 161.082,277.455 158.945,277.238 157.784 C 276.624 154.498,275.426 149.219,274.723 146.702 C 273.713 143.085,272.647 138.090,272.647 136.976 C 272.647 135.344,270.832 126.974,269.426 122.127 C 269.069 120.897,268.777 119.344,268.777 118.676 C 268.777 117.245,268.108 114.303,267.674 113.826 C 267.507 113.642,267.370 113.228,267.370 112.906 C 267.370 111.818,265.985 110.466,264.870 110.466 L 263.828 110.466 264.039 112.313 M266.668 112.403 C 267.619 114.369,268.416 117.298,268.422 118.852 C 268.424 119.497,268.754 121.239,269.155 122.722 C 270.885 129.119,272.300 135.766,272.298 137.480 C 272.295 138.650,273.222 142.874,274.397 147.054 C 274.981 149.134,275.794 152.852,276.893 158.470 C 277.118 159.621,277.427 160.808,277.578 161.108 C 278.002 161.946,278.850 165.155,279.676 169.041 C 280.542 173.117,281.560 177.215,282.523 180.500 C 282.896 181.771,283.201 183.126,283.201 183.510 C 283.201 183.894,283.498 185.149,283.861 186.299 C 284.224 187.449,284.685 189.182,284.885 190.150 C 285.388 192.572,285.792 193.892,287.093 197.361 C 287.901 199.518,288.492 202.216,289.211 207.036 C 290.086 212.913,291.136 217.184,291.976 218.294 C 292.122 218.487,292.583 219.793,292.999 221.196 C 293.415 222.599,294.074 224.815,294.464 226.121 C 294.854 227.427,295.171 228.700,295.168 228.950 C 295.165 229.200,295.460 230.387,295.822 231.589 C 296.185 232.790,296.830 235.040,297.254 236.588 C 297.679 238.135,298.332 240.442,298.705 241.714 C 299.079 242.985,299.384 244.373,299.384 244.797 C 299.384 245.222,299.631 246.556,299.933 247.763 C 300.868 251.499,301.886 255.477,302.564 258.047 C 303.373 261.110,304.568 267.879,304.815 270.790 C 304.917 271.994,305.223 273.973,305.495 275.188 C 305.768 276.403,306.336 278.980,306.760 280.915 C 307.183 282.850,307.743 285.303,308.006 286.368 C 308.581 288.701,309.240 293.443,309.237 295.220 C 309.234 296.766,307.797 296.724,306.952 295.153 C 306.140 293.644,305.013 290.524,305.013 289.787 C 305.013 289.397,304.719 288.191,304.360 287.107 C 303.589 284.778,302.587 281.571,301.491 277.924 C 301.055 276.473,300.482 274.766,300.217 274.131 C 299.953 273.495,299.736 272.747,299.736 272.469 C 299.736 272.190,299.401 271.206,298.991 270.282 C 298.581 269.358,297.965 267.968,297.622 267.194 C 297.279 266.420,296.682 265.075,296.296 264.204 C 295.910 263.333,295.495 261.829,295.374 260.862 C 295.065 258.395,293.977 254.267,292.871 251.363 C 292.355 250.009,291.721 247.951,291.462 246.790 C 290.985 244.648,290.762 243.576,289.484 237.291 C 289.091 235.356,288.469 232.586,288.104 231.135 C 287.738 229.683,287.265 226.720,287.052 224.549 C 286.623 220.176,286.172 217.519,284.796 211.258 C 284.285 208.936,283.788 206.561,283.691 205.981 C 283.593 205.400,283.217 203.896,282.855 202.639 C 281.979 199.599,281.586 197.749,281.101 194.371 C 280.878 192.823,280.379 189.974,279.990 188.039 C 278.574 180.984,278.291 179.522,277.568 175.550 C 277.164 173.325,276.533 170.158,276.166 168.514 C 275.799 166.869,275.163 163.940,274.751 162.005 C 274.339 160.070,273.698 157.198,273.325 155.623 C 272.952 154.048,272.650 152.386,272.653 151.929 C 272.656 151.473,272.329 149.595,271.926 147.757 C 271.524 145.919,270.960 143.307,270.673 141.953 C 270.386 140.598,269.856 138.382,269.494 137.027 C 268.467 133.184,267.358 127.969,267.365 127.012 C 267.368 126.535,267.070 124.873,266.703 123.318 C 265.550 118.432,264.610 113.864,264.437 112.313 C 264.189 110.081,265.571 110.137,266.668 112.403 " stroke="none" fill="#5d1615" fill-rule="evenodd"></path><path id="path6" d="M188.894 0.044 C 188.602 1.632,188.674 2.171,189.204 2.343 C 189.531 2.449,190.431 2.819,191.205 3.165 C 191.979 3.512,193.358 4.123,194.270 4.525 C 195.181 4.926,197.002 5.351,198.315 5.469 C 199.629 5.586,201.038 5.844,201.447 6.041 C 201.992 6.304,202.462 6.262,203.206 5.883 C 204.690 5.128,208.802 4.172,209.743 4.364 C 210.189 4.455,211.227 4.620,212.049 4.731 L 213.544 4.934 213.579 3.082 C 213.603 1.847,213.691 1.504,213.846 2.053 C 214.076 2.872,214.079 2.873,214.954 2.201 C 215.436 1.830,216.135 1.416,216.506 1.280 C 217.021 1.091,217.083 0.935,216.768 0.620 C 216.387 0.239,188.962 -0.328,188.894 0.044 M224.450 91.123 C 218.071 91.301,216.701 91.501,212.192 92.917 C 210.202 93.542,208.315 94.922,208.278 95.778 C 208.272 95.923,209.099 96.053,210.114 96.067 C 211.130 96.081,212.278 96.215,212.665 96.366 C 213.118 96.543,214.212 96.347,215.737 95.814 C 217.263 95.281,218.899 94.987,220.341 94.987 C 221.572 94.987,225.097 94.715,228.176 94.383 C 231.254 94.050,235.831 93.773,238.347 93.767 L 242.920 93.755 243.018 94.987 C 243.107 96.106,242.981 96.295,241.625 97.063 C 239.919 98.029,240.151 98.252,243.313 98.681 C 246.604 99.127,248.661 100.264,246.178 100.264 C 245.465 100.264,241.411 101.389,239.596 102.090 C 238.527 102.503,239.198 103.065,240.771 103.073 C 241.800 103.078,246.614 104.389,246.614 104.664 C 246.614 105.321,236.855 107.300,233.618 107.300 C 232.386 107.300,231.135 108.097,231.135 108.883 C 231.135 109.046,230.890 109.450,230.591 109.780 C 230.090 110.334,230.194 110.463,231.910 111.425 C 233.998 112.595,233.559 112.581,243.924 111.814 C 248.918 111.444,249.617 111.461,250.608 111.976 C 251.217 112.293,252.269 112.597,252.946 112.652 L 254.178 112.753 254.369 116.095 C 254.512 118.599,254.761 119.834,255.362 121.020 C 256.546 123.359,257.872 127.132,257.872 128.166 C 257.872 128.663,258.030 129.168,258.223 129.288 C 258.417 129.407,258.575 129.337,258.575 129.132 C 258.575 128.928,258.754 128.760,258.973 128.760 C 259.359 128.760,259.254 130.403,258.759 132.102 C 258.623 132.569,258.866 133.161,259.481 133.861 C 260.373 134.877,260.399 135.026,260.175 137.841 L 259.942 140.765 261.208 141.925 L 262.473 143.084 262.234 148.148 C 261.986 153.400,262.195 154.635,264.137 159.367 C 265.159 161.858,266.840 169.879,267.343 174.670 C 267.684 177.916,268.363 180.568,269.525 183.198 C 269.888 184.018,270.185 184.909,270.185 185.177 C 270.185 185.446,270.431 186.255,270.732 186.976 C 271.127 187.921,271.249 189.187,271.172 191.532 C 271.082 194.229,271.191 195.071,271.815 196.510 C 273.803 201.094,274.183 202.862,273.529 204.485 C 271.948 208.413,272.702 213.083,274.934 213.187 C 275.128 213.196,275.951 214.111,276.765 215.220 L 278.244 217.238 277.161 218.356 C 275.526 220.042,275.913 222.691,277.794 222.691 L 279.028 222.691 278.262 223.766 C 277.389 224.992,277.753 235.685,278.795 239.402 C 280.215 244.473,280.739 246.640,280.739 247.450 C 280.739 247.943,281.045 249.184,281.419 250.207 C 281.792 251.230,282.453 253.571,282.887 255.409 C 283.321 257.247,283.965 259.171,284.318 259.685 C 284.738 260.295,284.965 261.270,284.973 262.499 C 284.980 263.678,285.384 265.495,286.055 267.370 C 286.644 269.015,287.271 270.947,287.448 271.664 C 287.755 272.900,288.098 273.770,289.570 277.045 C 289.918 277.819,290.512 279.323,290.889 280.387 C 292.724 285.565,293.059 286.973,293.055 289.480 C 293.053 290.901,293.299 292.915,293.601 293.955 C 294.775 297.992,293.848 299.367,289.119 300.602 C 288.089 300.871,286.772 301.274,286.192 301.497 L 285.136 301.903 286.139 302.432 L 287.141 302.961 286.325 303.723 C 285.139 304.832,283.029 305.692,280.590 306.060 C 279.414 306.237,277.151 306.620,275.560 306.911 C 273.782 307.236,270.172 307.462,266.183 307.499 C 254.164 307.610,249.110 308.341,249.585 309.900 C 249.680 310.211,249.934 311.970,250.151 313.808 C 250.806 319.375,253.101 323.254,255.761 323.289 C 259.116 323.333,260.783 325.368,260.614 329.213 L 260.510 331.574 258.839 331.682 C 257.295 331.781,256.391 332.447,257.784 332.459 C 259.129 332.471,259.473 333.087,258.381 333.531 C 254.562 335.085,254.569 335.069,256.464 337.772 C 257.238 338.875,257.872 339.931,257.872 340.118 C 257.872 340.732,259.020 341.488,259.189 340.985 C 259.573 339.847,263.809 343.594,265.137 346.246 C 266.616 349.200,267.758 352.054,268.488 354.617 C 268.681 355.295,269.065 356.625,269.340 357.574 C 270.198 360.526,270.301 361.987,269.827 364.501 C 269.098 368.364,270.119 372.604,272.828 376.957 C 273.309 377.731,273.945 378.839,274.240 379.420 C 274.945 380.806,275.468 381.660,276.430 383.001 L 277.223 384.104 281.004 382.432 C 287.134 379.722,297.055 374.579,302.808 371.131 L 308.166 367.919 307.178 366.930 C 306.634 366.387,306.040 365.419,305.857 364.781 C 305.446 363.349,301.407 361.167,298.252 360.672 C 295.726 360.276,294.625 359.543,293.767 357.686 C 293.033 356.098,291.645 349.753,291.645 347.989 C 291.645 347.403,291.465 346.478,291.246 345.933 C 291.026 345.388,290.564 343.993,290.220 342.832 C 289.503 340.418,288.613 337.878,288.124 336.851 C 287.940 336.464,287.641 335.736,287.459 335.234 C 287.131 334.326,284.247 332.168,282.288 331.366 C 281.726 331.136,280.792 330.748,280.211 330.504 C 278.149 329.638,275.080 329.219,272.612 329.467 C 271.277 329.601,270.185 329.645,270.185 329.564 C 270.185 329.300,274.085 321.731,274.368 321.447 C 274.520 321.295,275.054 321.326,275.556 321.517 C 276.264 321.786,276.651 321.728,277.284 321.257 C 278.790 320.137,279.846 319.800,282.146 319.706 C 284.340 319.617,284.429 319.578,284.337 318.755 C 284.204 317.557,284.390 317.612,279.609 317.357 C 274.971 317.110,274.406 316.953,274.406 315.904 C 274.406 315.251,274.450 315.248,275.658 315.824 C 277.268 316.592,277.560 316.194,277.567 313.221 C 277.576 309.721,278.252 309.063,282.850 308.081 C 284.301 307.772,286.992 307.189,288.830 306.788 C 290.668 306.386,292.428 306.060,292.741 306.063 C 293.502 306.071,296.608 304.849,299.208 303.520 C 304.086 301.028,303.832 301.111,305.444 301.483 C 310.634 302.680,313.781 299.813,312.384 295.160 C 312.181 294.484,311.864 291.873,311.681 289.358 C 311.485 286.675,311.065 283.912,310.664 282.674 C 310.289 281.513,309.631 278.426,309.203 275.814 C 308.775 273.201,308.211 270.530,307.950 269.878 C 307.689 269.225,307.476 267.426,307.476 265.880 C 307.476 263.380,307.335 262.769,306.206 260.382 C 304.480 256.733,303.898 253.923,303.791 248.725 C 303.722 245.355,303.524 243.793,302.946 242.040 C 302.530 240.783,302.038 238.250,301.851 236.412 C 301.146 229.468,299.958 225.506,298.581 225.506 C 297.417 225.506,297.173 225.145,297.839 224.409 C 298.473 223.708,297.418 220.385,295.506 217.062 C 294.171 214.744,293.179 212.559,292.501 210.446 C 291.902 208.578,291.906 208.135,292.564 202.519 C 292.786 200.627,292.706 200.264,291.557 197.945 C 289.584 193.964,289.311 193.208,288.293 188.918 C 287.765 186.693,287.055 184.081,286.716 183.113 C 286.377 182.146,285.848 180.484,285.540 179.420 C 285.232 178.355,284.659 176.464,284.266 175.218 C 283.725 173.496,283.553 171.988,283.553 168.950 C 283.553 165.709,283.414 164.604,282.818 163.126 C 281.077 158.807,280.631 157.715,280.135 156.552 C 279.232 154.435,278.285 151.142,278.281 150.102 C 278.278 149.553,277.969 147.970,277.593 146.584 C 276.577 142.837,275.462 137.014,275.462 135.453 C 275.462 134.698,275.203 133.002,274.886 131.684 C 274.569 130.366,274.213 128.259,274.095 127.001 C 273.893 124.865,273.821 124.714,273.010 124.707 C 272.169 124.700,272.122 124.566,271.578 120.661 C 271.009 116.574,270.593 114.951,269.461 112.401 C 267.242 107.400,267.495 105.782,270.786 103.941 C 272.590 102.933,272.608 102.906,271.972 102.206 C 270.183 100.237,270.042 94.363,271.754 93.116 C 274.326 91.243,272.145 90.484,266.404 91.256 C 260.834 92.005,247.314 92.174,242.040 91.561 C 237.324 91.013,232.603 90.895,224.450 91.123 M266.641 111.393 C 267.042 111.903,267.370 112.584,267.370 112.906 C 267.370 113.228,267.507 113.642,267.674 113.826 C 268.108 114.303,268.777 117.245,268.777 118.676 C 268.777 119.344,269.069 120.897,269.426 122.127 C 270.832 126.974,272.647 135.344,272.647 136.976 C 272.647 138.090,273.713 143.085,274.723 146.702 C 275.426 149.219,276.624 154.498,277.238 157.784 C 277.455 158.945,277.998 161.082,278.445 162.533 C 278.892 163.984,279.604 166.755,280.027 168.690 C 280.450 170.624,281.113 173.474,281.499 175.022 C 281.885 176.570,282.518 179.103,282.905 180.651 C 283.292 182.199,283.845 184.306,284.133 185.333 C 284.422 186.360,284.796 187.943,284.965 188.851 C 285.382 191.087,286.096 193.445,287.436 197.010 C 288.652 200.244,288.895 201.401,289.869 208.619 C 290.277 211.641,290.858 214.264,291.467 215.831 C 292.772 219.190,293.919 222.675,294.827 226.033 C 295.246 227.581,295.872 229.877,296.218 231.135 C 299.430 242.799,300.800 248.320,300.795 249.579 C 300.793 249.953,301.097 251.298,301.471 252.570 C 303.474 259.390,305.019 266.499,305.007 268.847 C 305.001 270.243,306.219 277.071,307.130 280.739 C 308.806 287.491,309.587 292.011,309.587 294.967 L 309.587 296.978 308.443 296.739 C 307.289 296.498,306.091 295.377,306.076 294.524 C 306.072 294.270,305.774 293.320,305.413 292.414 C 305.053 291.507,304.578 290.053,304.359 289.182 C 303.939 287.508,302.968 284.179,301.797 280.387 C 301.408 279.129,300.875 277.388,300.612 276.517 C 299.713 273.536,298.558 270.417,297.292 267.546 C 295.696 263.927,295.194 262.504,294.995 261.038 C 294.667 258.619,293.726 254.659,293.185 253.421 C 292.918 252.811,292.700 252.168,292.700 251.992 C 292.700 251.816,292.383 251.016,291.996 250.215 C 291.609 249.414,291.293 248.508,291.293 248.201 C 291.293 247.895,290.988 246.344,290.615 244.754 C 290.243 243.165,289.596 240.123,289.179 237.995 C 288.761 235.866,288.132 232.938,287.780 231.486 C 287.429 230.035,286.964 227.344,286.747 225.506 C 285.994 219.111,285.607 216.524,285.143 214.776 C 284.544 212.523,283.507 207.845,283.154 205.805 C 283.003 204.934,282.480 202.718,281.993 200.880 C 281.505 199.041,280.936 196.271,280.730 194.723 C 280.523 193.175,280.054 190.405,279.688 188.566 C 278.206 181.127,277.945 179.784,277.221 175.901 C 276.806 173.676,276.175 170.589,275.818 169.041 C 275.461 167.493,274.825 164.565,274.404 162.533 C 273.983 160.501,273.337 157.539,272.967 155.949 C 272.598 154.360,272.296 152.670,272.296 152.194 C 272.296 151.718,271.978 149.852,271.590 148.048 C 271.202 146.243,270.637 143.580,270.335 142.128 C 270.032 140.677,269.486 138.382,269.121 137.027 C 267.959 132.712,267.018 128.462,267.018 127.529 C 267.018 127.031,266.717 125.323,266.350 123.734 C 265.070 118.206,264.249 114.149,264.039 112.313 L 263.828 110.466 264.870 110.466 C 265.577 110.466,266.147 110.764,266.641 111.393 " stroke="none" fill="#2c0c0c" fill-rule="evenodd"></path><path id="path7" d="M169.081 231.310 C 169.264 234.598,169.610 236.599,171.301 244.151 C 171.670 245.796,172.313 248.804,172.730 250.836 C 173.147 252.867,173.715 255.335,173.992 256.319 C 174.268 257.304,174.494 258.401,174.494 258.757 C 174.494 259.113,174.825 260.524,175.229 261.892 C 175.998 264.495,176.714 267.055,177.993 271.768 C 178.730 274.482,179.622 277.573,180.735 281.266 C 181.027 282.234,181.553 283.738,181.904 284.609 C 182.255 285.479,182.625 286.429,182.727 286.719 C 183.772 289.714,182.017 276.694,180.629 271.157 C 180.351 270.048,180.123 268.806,180.123 268.398 C 180.123 267.989,179.823 266.602,179.457 265.314 C 179.090 264.026,178.431 261.390,177.993 259.455 C 177.554 257.520,176.904 254.931,176.548 253.701 C 176.193 252.471,175.901 251.150,175.901 250.765 C 175.901 250.380,175.602 249.012,175.235 247.724 C 174.869 246.436,174.301 244.116,173.973 242.568 C 173.018 238.060,171.498 233.486,170.016 230.662 C 169.727 230.112,169.355 229.241,169.188 228.727 C 169.001 228.150,168.960 229.137,169.081 231.310 " stroke="none" fill="#f2f7f7" fill-rule="evenodd"></path><path id="path8" d="M143.008 101.174 C 140.686 101.429,135.145 101.791,130.695 101.979 C 126.245 102.168,121.099 102.496,119.261 102.708 C 112.610 103.476,105.662 104.539,103.078 105.183 C 96.678 106.778,97.183 106.559,96.941 107.849 C 96.772 108.749,96.389 109.215,95.326 109.812 C 94.559 110.243,93.931 110.706,93.931 110.842 C 93.931 110.977,93.615 111.170,93.228 111.272 C 92.097 111.567,92.411 112.080,94.019 112.564 C 95.081 112.884,98.027 113.000,104.177 112.965 L 112.840 112.917 114.830 114.907 L 116.821 116.897 120.592 116.658 C 122.666 116.527,125.391 116.264,126.649 116.074 C 127.907 115.885,130.994 115.580,133.509 115.398 C 147.682 114.370,147.712 114.365,146.914 113.225 C 146.604 112.782,146.350 112.582,146.350 112.780 C 146.350 112.978,146.516 113.306,146.718 113.508 C 146.975 113.765,146.094 113.944,143.816 114.101 C 139.913 114.368,134.253 114.878,127.529 115.570 C 124.820 115.848,121.337 116.172,119.789 116.291 L 116.974 116.505 115.052 114.541 L 113.129 112.577 104.498 112.575 C 96.755 112.573,91.485 112.103,93.668 111.609 C 94.006 111.533,94.283 111.333,94.283 111.166 C 94.283 111.000,94.915 110.508,95.686 110.074 C 96.734 109.486,97.143 109.001,97.300 108.163 C 97.522 106.978,97.647 106.914,101.671 105.927 C 108.784 104.184,119.248 102.929,131.398 102.362 C 135.462 102.172,140.446 101.871,142.475 101.692 C 144.504 101.514,146.232 101.436,146.316 101.519 C 146.399 101.603,146.213 101.671,145.902 101.671 C 145.591 101.671,145.239 101.828,145.121 102.019 C 144.993 102.227,145.161 102.273,145.540 102.135 C 146.272 101.867,148.007 100.592,147.541 100.664 C 147.370 100.690,145.330 100.920,143.008 101.174 M148.080 110.015 C 148.445 110.159,148.256 110.494,147.376 111.264 L 146.174 112.316 147.386 111.449 C 148.796 110.440,149.145 109.751,148.226 109.790 C 147.765 109.810,147.723 109.874,148.080 110.015 M153.122 119.152 C 153.461 119.240,154.015 119.240,154.354 119.152 C 154.692 119.063,154.415 118.991,153.738 118.991 C 153.061 118.991,152.784 119.063,153.122 119.152 M128.232 120.355 C 126.491 120.515,122.296 120.903,118.909 121.215 C 115.523 121.527,110.299 122.086,107.300 122.458 C 104.301 122.830,101.055 123.142,100.088 123.151 C 94.745 123.201,93.233 125.067,94.597 129.923 C 95.460 132.994,96.746 139.609,96.745 140.967 C 96.744 141.509,97.044 143.061,97.412 144.415 C 98.577 148.705,98.948 150.343,99.211 152.348 C 99.534 154.810,100.483 159.211,101.333 162.181 C 101.692 163.439,102.326 166.526,102.740 169.041 C 103.155 171.557,103.796 174.608,104.166 175.821 C 104.535 177.034,104.837 178.310,104.837 178.655 C 104.837 179.000,105.137 180.224,105.502 181.374 C 105.868 182.524,106.436 184.811,106.764 186.456 C 107.092 188.100,107.659 190.633,108.023 192.084 C 108.388 193.536,109.020 196.544,109.428 198.769 C 110.497 204.599,110.472 204.502,112.221 209.499 C 112.560 210.466,113.114 212.208,113.453 213.369 C 113.792 214.529,114.282 215.986,114.541 216.606 C 115.736 219.462,116.499 223.833,116.256 226.427 C 115.960 229.580,116.465 231.885,118.077 234.736 C 118.728 235.888,119.261 236.899,119.261 236.983 C 119.261 237.067,119.803 238.278,120.465 239.676 C 121.972 242.854,122.883 245.397,125.661 254.178 C 126.518 256.886,127.719 259.680,128.356 260.447 C 128.671 260.827,128.626 261.474,128.163 263.241 C 127.593 265.415,127.593 265.684,128.164 268.127 C 128.497 269.549,128.772 271.187,128.777 271.768 C 128.781 272.348,129.014 273.852,129.295 275.110 C 129.576 276.368,129.965 279.930,130.161 283.026 C 130.707 291.661,131.610 296.942,133.721 303.855 C 134.088 305.057,134.389 306.284,134.389 306.583 C 134.389 306.882,134.705 307.717,135.092 308.439 C 135.479 309.161,135.796 309.955,135.796 310.204 C 135.796 312.324,139.207 314.990,143.162 315.961 C 146.775 316.848,171.121 316.958,174.846 316.104 C 176.104 315.816,178.119 315.398,179.324 315.175 C 180.529 314.953,181.445 314.658,181.360 314.520 C 181.274 314.382,180.289 314.478,179.169 314.732 C 173.263 316.075,172.961 316.095,159.015 316.095 C 140.586 316.095,138.002 315.401,136.082 309.938 C 135.776 309.068,135.356 307.880,135.150 307.300 C 132.866 300.866,131.356 293.263,130.852 285.664 C 130.502 280.377,129.653 273.992,128.543 268.293 C 128.047 265.750,128.052 265.320,128.599 263.089 C 129.107 261.014,129.123 260.569,128.710 260.056 C 127.742 258.854,126.305 255.425,125.510 252.419 C 124.841 249.889,123.054 244.687,122.737 244.345 C 122.567 244.161,122.427 243.710,122.427 243.344 C 122.427 242.977,122.209 242.257,121.942 241.743 C 117.161 232.552,116.422 230.355,116.708 226.190 C 116.905 223.313,116.471 220.865,115.058 216.887 C 113.898 213.620,113.277 211.612,113.279 211.135 C 113.280 210.874,113.053 210.162,112.775 209.552 C 111.839 207.500,110.466 203.121,110.466 202.186 C 110.466 201.087,109.279 195.040,108.379 191.557 C 108.029 190.202,107.475 187.828,107.148 186.280 C 106.822 184.732,106.247 182.425,105.872 181.154 C 105.496 179.882,105.189 178.548,105.189 178.188 C 105.189 177.829,104.885 176.494,104.513 175.223 C 104.142 173.951,103.492 170.932,103.070 168.514 C 102.647 166.095,102.017 163.087,101.670 161.829 C 101.322 160.572,100.689 157.643,100.263 155.321 C 99.837 152.999,99.277 150.229,99.019 149.164 C 97.515 142.959,97.114 141.054,96.947 139.314 C 96.751 137.275,96.063 133.869,94.951 129.440 C 93.770 124.733,94.529 124.004,101.143 123.492 C 103.078 123.342,106.719 122.966,109.235 122.656 C 119.125 121.438,125.031 120.949,132.454 120.732 C 138.093 120.567,139.573 120.443,137.907 120.276 C 134.897 119.975,132.101 119.997,128.232 120.355 M185.149 314.420 C 186.269 314.490,188.010 314.490,189.019 314.419 C 190.028 314.348,189.112 314.291,186.983 314.292 C 184.855 314.292,184.030 314.350,185.149 314.420 " stroke="none" fill="#120468" fill-rule="evenodd"></path></g></svg>