<?xml version="1.0" standalone="no"?>
<!DOCTYPE svg PUBLIC "-//W3C//DTD SVG 20010904//EN"
 "http://www.w3.org/TR/2001/REC-SVG-20010904/DTD/svg10.dtd">
<svg version="1.0" xmlns="http://www.w3.org/2000/svg"
 width="641.000000pt" height="641.000000pt" viewBox="0 0 641.000000 641.000000"
 preserveAspectRatio="xMidYMid meet">
<metadata>
Created by potrace 1.14, written by Peter Selinger 2001-2017
</metadata>
<g transform="translate(0.000000,641.000000) scale(0.100000,-0.100000)"
fill="#000000" stroke="none">
<path d="M2863 6395 c-611 -68 -1185 -306 -1668 -692 -136 -108 -376 -346
-476 -473 -333 -419 -540 -849 -649 -1353 -51 -235 -64 -368 -65 -642 0 -297
7 -388 45 -602 93 -519 319 -1016 656 -1438 113 -141 348 -376 489 -489 380
-302 832 -522 1285 -624 143 -32 164 -36 275 -52 39 -5 88 -12 110 -15 82 -14
568 -13 685 1 654 76 1250 334 1740 752 90 78 309 298 365 367 22 27 48 58 57
69 35 39 178 245 231 331 211 350 361 748 421 1120 21 125 22 134 33 235 10
97 10 521 0 625 -59 592 -276 1149 -631 1620 -33 44 -65 85 -71 91 -5 6 -30
36 -54 65 -70 84 -286 297 -387 381 -392 324 -861 554 -1345 662 -122 27 -143
30 -259 46 -41 6 -88 13 -105 16 -70 13 -563 12 -682 -1z"/>
</g>
</svg>
